# xmcd
#
# Track frame offsets:
#	150
#	16339
#	32414
#	49291
#	81269
#	112131
#	143159
#	178507
#
# Disc length: 2724 seconds
#
# Revision: 1
# Processed by: cddbd v1.5.2PL0 Copyright (c) Steve Scherf et al.
# Submitted via: audiograbber 1.83.01
#
DISCID=650aa208
DTITLE=Lothos feat. Kimia - Sky Is The Limit
DYEAR=2002
DGENRE=Dance
TTITLE0=Sky Is The Limit (Radio Mix)
TTITLE1=Sky Is The Limit (Oktane Radio Mix)
TTITLE2=Sky Is The Limit (Chillout Radio Mix)
TTITLE3=Sky Is The Limit (Extended Club Mix)
TTITLE4=Sky Is The Limit (Mario Lopez RMX)
TTITLE5=Sky Is The Limit (DJ Dean RMX)
TTITLE6=Sky Is The Limit (Oktane Hard Club Mix)
TTITLE7=Sky Is The Limit (Chillout Ambient Mix)
EXTD=
EXTT0=
EXTT1=
EXTT2=
EXTT3=
EXTT4=
EXTT5=
EXTT6=
EXTT7=
PLAYORDER=
